<svg xmlns="http://www.w3.org/2000/svg" width="756" height="665">
    <style>
    .a {
        fill: #000;
        stroke: #000;
    }
    
    .b {
        fill: #fff;
        stroke: #000;
    }
    </style>
    <g transform="translate(-174.93103 -46.318828)matrix(1.1882592 0 0 1.1882592 130.9531 -160.68498)">
        <path d="M195 181C39 183 67 260 68 262 66 263 48 274 48 278 48 280 49 281 50 282 48 282 44 283 45 290 46 298 51 300 53 301 66 308 125 302 153 324 131 372 145 419 194 443 195 435 188 392 216 367 205 351 207 348 207 348 217 357 291 395 334 415 357 425 406 455 421 461 436 468 445 471 457 484 472 500 519 571 535 622 495 625 443 680 447 719 447 719 470 703 486 702 503 703 520 706 538 704 557 702 581 700 591 702 631 706 644 719 663 731 661 699 662 688 635 660 602 626 574 631 571 607 570 599 567 419 466 304 423 257 459 247 459 247 459 247 451 229 439 225 427 220 399 224 376 228 367 223 297 181 195 181z" class="a" />
        <path d="M174 243C179 245 187 243 191 240 195 237 191 235 188 233 184 232 174 231 174 243z" class="b" />
        <path d="M101 198C71 212 60 235 67 262 84 251 110 249 135 251 115 245 90 247 75 249 69 234 80 209 101 198z" class="b" />
        <path d="M181 252C148 252 124 266 105 276 93 283 83 288 68 287 53 286 51 284 47 282 47 282 44 284 45 290 46 294 46 297 53 301 69 309 123 302 153 324 135 362 137 415 194 443 195 435 188 392 216 367 212 360 208 353 207 349 232 366 290 395 334 415 350 422 408 456 432 466 459 477 473 507 479 516 511 561 532 612 535 622 477 633 441 696 446 719 453 716 472 701 490 702 507 703 517 706 535 705 554 704 567 700 592 702 631 706 640 718 664 731 664 686 643 660 602 635 592 629 561 623 554 610 549 602 539 525 485 443 412 332 340 307 282 279 251 264 208 252 181 252z" class="b" />
        <path d="M251 310C280 337 343 407 390 399 390 399 354 379 343 347 340 338 331 327 298 313 292 310 251 297 251 310z" class="a" />
    </g>
</svg>
